<svg width="400" height="400" viewBox="0 0 400 400" fill="none" xmlns="http://www.w3.org/2000/svg">
<rect width="400" height="400" fill="#363636"/>
<g clip-path="url(#clip0_6_43)">
<path d="M240.82 170.707C239.983 170.325 239.615 169.337 239.998 168.498C240.382 167.662 241.368 167.29 242.207 167.677C243.362 168.203 244.437 168.895 245.398 169.728C246.093 170.332 246.168 171.385 245.567 172.08C245.237 172.46 244.772 172.655 244.307 172.655C243.92 172.655 243.53 172.522 243.215 172.248C242.493 171.622 241.688 171.103 240.82 170.707Z" fill="#E4E4E4"/>
<path d="M235 169.807H231.667C230.745 169.807 230 169.062 230 168.14C230 167.218 230.745 166.473 231.667 166.473H235C235.922 166.473 236.667 167.218 236.667 168.14C236.667 169.062 235.922 169.807 235 169.807Z" fill="#E4E4E4"/>
<path d="M225 169.807H221.667C220.745 169.807 220 169.062 220 168.14C220 167.218 220.745 166.473 221.667 166.473H225C225.922 166.473 226.667 167.218 226.667 168.14C226.667 169.062 225.922 169.807 225 169.807Z" fill="#E4E4E4"/>
<path d="M231.667 189.807H235C235.922 189.807 236.667 190.552 236.667 191.473C236.667 192.395 235.922 193.14 235 193.14H231.667C230.745 193.14 230 192.395 230 191.473C230 190.552 230.745 189.807 231.667 189.807Z" fill="#E4E4E4"/>
<path d="M211.667 189.807H215C215.922 189.807 216.667 190.552 216.667 191.473C216.667 192.395 215.922 193.14 215 193.14H211.667C210.745 193.14 210 192.395 210 191.473C210 190.552 210.745 189.807 211.667 189.807Z" fill="#E4E4E4"/>
<path d="M221.667 189.807H225C225.922 189.807 226.667 190.552 226.667 191.473C226.667 192.395 225.922 193.14 225 193.14H221.667C220.745 193.14 220 192.395 220 191.473C220 190.552 220.745 189.807 221.667 189.807Z" fill="#E4E4E4"/>
<path d="M240.82 188.907C241.687 188.51 242.492 187.992 243.213 187.365C243.908 186.763 244.96 186.838 245.565 187.533C246.167 188.228 246.092 189.282 245.397 189.885C244.435 190.718 243.362 191.408 242.207 191.937C241.982 192.04 241.747 192.088 241.515 192.088C240.882 192.088 240.278 191.727 239.998 191.115C239.617 190.278 239.983 189.288 240.82 188.907Z" fill="#E4E4E4"/>
<path d="M201.667 189.807H205C205.922 189.807 206.667 190.552 206.667 191.473C206.667 192.395 205.922 193.14 205 193.14H201.667C200.745 193.14 200 192.395 200 191.473C200 190.552 200.745 189.807 201.667 189.807Z" fill="#E4E4E4"/>
<path d="M171.667 189.807H175C175.922 189.807 176.667 190.552 176.667 191.473C176.667 192.395 175.922 193.14 175 193.14H171.667C170.745 193.14 170 192.395 170 191.473C170 190.552 170.745 189.807 171.667 189.807Z" fill="#E4E4E4"/>
<path d="M161.667 189.807H165C165.922 189.807 166.667 190.552 166.667 191.473C166.667 192.395 165.922 193.14 165 193.14H161.667C160.745 193.14 160 192.395 160 191.473C160 190.552 160.745 189.807 161.667 189.807Z" fill="#E4E4E4"/>
<path d="M191.667 189.807H195C195.922 189.807 196.667 190.552 196.667 191.473C196.667 192.395 195.922 193.14 195 193.14H191.667C190.745 193.14 190 192.395 190 191.473C190 190.552 190.745 189.807 191.667 189.807Z" fill="#E4E4E4"/>
<path d="M181.667 189.807H185C185.922 189.807 186.667 190.552 186.667 191.473C186.667 192.395 185.922 193.14 185 193.14H181.667C180.745 193.14 180 192.395 180 191.473C180 190.552 180.745 189.807 181.667 189.807Z" fill="#E4E4E4"/>
<path d="M240.82 238.907C241.687 238.51 242.492 237.992 243.213 237.365C243.908 236.763 244.96 236.838 245.565 237.533C246.167 238.228 246.092 239.282 245.397 239.885C244.435 240.718 243.362 241.408 242.207 241.937C241.982 242.04 241.747 242.088 241.515 242.088C240.882 242.088 240.278 241.727 239.998 241.115C239.617 240.278 239.983 239.288 240.82 238.907Z" fill="#E4E4E4"/>
<path d="M221.667 239.807H225C225.922 239.807 226.667 240.552 226.667 241.473C226.667 242.395 225.922 243.14 225 243.14H221.667C220.745 243.14 220 242.395 220 241.473C220 240.552 220.745 239.807 221.667 239.807Z" fill="#E4E4E4"/>
<path d="M231.667 239.807H235C235.922 239.807 236.667 240.552 236.667 241.473C236.667 242.395 235.922 243.14 235 243.14H231.667C230.745 243.14 230 242.395 230 241.473C230 240.552 230.745 239.807 231.667 239.807Z" fill="#E4E4E4"/>
<path d="M191.667 239.807H195C195.922 239.807 196.667 240.552 196.667 241.473C196.667 242.395 195.922 243.14 195 243.14H191.667C190.745 243.14 190 242.395 190 241.473C190 240.552 190.745 239.807 191.667 239.807Z" fill="#E4E4E4"/>
<path d="M186.667 241.473C186.667 242.395 185.922 243.14 185 243.14H181.667C180.745 243.14 180 242.395 180 241.473C180 240.552 180.745 239.807 181.667 239.807H185C185.922 239.807 186.667 240.552 186.667 241.473Z" fill="#E4E4E4"/>
<path d="M175 243.14H171.667C170.745 243.14 170 242.395 170 241.473C170 240.552 170.745 239.807 171.667 239.807H175C175.922 239.807 176.667 240.552 176.667 241.473C176.667 242.395 175.922 243.14 175 243.14Z" fill="#E4E4E4"/>
<path d="M201.667 239.807H205C205.922 239.807 206.667 240.552 206.667 241.473C206.667 242.395 205.922 243.14 205 243.14H201.667C200.745 243.14 200 242.395 200 241.473C200 240.552 200.745 239.807 201.667 239.807Z" fill="#E4E4E4"/>
<path d="M165 243.14H161.667C160.745 243.14 160 242.395 160 241.473C160 240.552 160.745 239.807 161.667 239.807H165C165.922 239.807 166.667 240.552 166.667 241.473C166.667 242.395 165.922 243.14 165 243.14Z" fill="#E4E4E4"/>
<path d="M211.667 239.807H215C215.922 239.807 216.667 240.552 216.667 241.473C216.667 242.395 215.922 243.14 215 243.14H211.667C210.745 243.14 210 242.395 210 241.473C210 240.552 210.745 239.807 211.667 239.807Z" fill="#E4E4E4"/>
<path d="M176.667 214.807C176.667 218.483 173.677 221.473 170 221.473C166.323 221.473 163.333 218.483 163.333 214.807C163.333 211.13 166.323 208.14 170 208.14C173.677 208.14 176.667 211.13 176.667 214.807ZM170 211.473C168.162 211.473 166.667 212.968 166.667 214.807C166.667 216.645 168.162 218.14 170 218.14C171.838 218.14 173.333 216.645 173.333 214.807C173.333 212.968 171.838 211.473 170 211.473Z" fill="#E4E4E4"/>
<path d="M178.43 159.807L187.49 150.747C188.228 150.008 189.433 150.008 190.172 150.747L193.582 154.157L196.992 150.747C197.73 150.008 198.935 150.008 199.673 150.747L208.733 159.807H236.667C244.018 159.807 250 165.788 250 173.14V237.887C250 244.458 244.652 249.807 238.08 249.807H150V226.473V203.14V186.473V183.14V159.807H178.43ZM188.83 154.12L183.143 159.807L159.81 183.14H168.795L187.573 164.36C188.278 163.675 189.383 163.677 190.105 164.378L208.865 183.14H217.85L191.223 156.515L188.83 154.12ZM173.507 183.14H204.152L188.83 167.818L173.507 183.14ZM198.333 154.12L195.938 156.515L222.563 183.14H227.353L204.02 159.807L198.333 154.12ZM236.667 163.14H212.067L215.502 166.575C216.007 166.738 216.393 167.123 216.557 167.63L232.067 183.14H236.667C242.182 183.14 246.667 178.655 246.667 173.14C246.667 167.625 242.182 163.14 236.667 163.14ZM153.333 223.14H171.667C176.262 223.14 180 219.402 180 214.807C180 210.212 176.262 206.473 171.667 206.473H153.333V223.14ZM153.333 189.807H155C155.922 189.807 156.667 190.552 156.667 191.473C156.667 192.395 155.922 193.14 155 193.14H153.333V203.14H171.667C178.098 203.14 183.333 208.375 183.333 214.807C183.333 221.238 178.098 226.473 171.667 226.473H153.333V239.807H155C155.922 239.807 156.667 240.552 156.667 241.473C156.667 242.395 155.922 243.14 155 243.14H153.333V246.473H238.08C242.813 246.473 246.667 242.622 246.667 237.887V234.213C246.278 233.797 246.092 233.208 246.265 232.623C246.532 231.713 246.667 230.765 246.667 229.807V184.213C246.278 183.797 246.092 183.208 246.265 182.623C246.297 182.515 246.308 182.403 246.337 182.295C246.187 182.453 246.035 182.608 245.878 182.758C245.735 182.897 245.587 183.028 245.437 183.16C245.25 183.323 245.06 183.482 244.865 183.635C244.708 183.758 244.548 183.877 244.387 183.993C244.185 184.138 243.977 184.275 243.767 184.408C243.598 184.515 243.43 184.618 243.257 184.718C243.037 184.843 242.812 184.96 242.585 185.073C242.41 185.162 242.235 185.25 242.055 185.33C241.817 185.435 241.573 185.528 241.33 185.62C241.15 185.688 240.972 185.758 240.788 185.818C240.527 185.903 240.26 185.972 239.993 186.042C239.817 186.087 239.643 186.14 239.463 186.178C239.162 186.243 238.855 186.287 238.547 186.33C238.393 186.352 238.243 186.383 238.088 186.4C237.622 186.45 237.148 186.478 236.67 186.478H230.31H225.597H220.807H216.093H207.833H169.825H161.57H156.857H153.333V189.807ZM155.097 183.14L168.43 169.807H168.333C167.412 169.807 166.667 169.062 166.667 168.14C166.667 167.218 167.412 166.473 168.333 166.473H171.667C171.695 166.473 171.718 166.488 171.747 166.49L175.097 163.14H153.333V183.14H155.097Z" fill="#E4E4E4"/>
<path d="M158.333 166.473H161.667C162.588 166.473 163.333 167.218 163.333 168.14C163.333 169.062 162.588 169.807 161.667 169.807H158.333C157.412 169.807 156.667 169.062 156.667 168.14C156.667 167.218 157.412 166.473 158.333 166.473Z" fill="#E4E4E4"/>
</g>
<defs>
<clipPath id="clip0_6_43">
<rect width="100" height="100" fill="white" transform="matrix(-1 0 0 1 250 150)"/>
</clipPath>
</defs>
</svg>
