<svg width="400" height="400" viewBox="0 0 400 400" fill="none" xmlns="http://www.w3.org/2000/svg">
<g clip-path="url(#clip0_1_8)">
<path d="M281.64 141.413C279.967 140.65 279.23 138.673 279.997 136.997C280.763 135.323 282.737 134.58 284.413 135.353C286.723 136.407 288.873 137.79 290.797 139.457C292.187 140.663 292.337 142.77 291.133 144.16C290.473 144.92 289.543 145.31 288.613 145.31C287.84 145.31 287.06 145.043 286.43 144.497C284.987 143.243 283.377 142.207 281.64 141.413Z" fill="#E4E4E4"/>
<path d="M270 139.613H263.333C261.49 139.613 260 138.123 260 136.28C260 134.437 261.49 132.947 263.333 132.947H270C271.843 132.947 273.333 134.437 273.333 136.28C273.333 138.123 271.843 139.613 270 139.613Z" fill="#E4E4E4"/>
<path d="M250 139.613H243.333C241.49 139.613 240 138.123 240 136.28C240 134.437 241.49 132.947 243.333 132.947H250C251.843 132.947 253.333 134.437 253.333 136.28C253.333 138.123 251.843 139.613 250 139.613Z" fill="#E4E4E4"/>
<path d="M263.333 179.613H270C271.843 179.613 273.333 181.103 273.333 182.947C273.333 184.79 271.843 186.28 270 186.28H263.333C261.49 186.28 260 184.79 260 182.947C260 181.103 261.49 179.613 263.333 179.613Z" fill="#E4E4E4"/>
<path d="M223.333 179.613H230C231.843 179.613 233.333 181.103 233.333 182.947C233.333 184.79 231.843 186.28 230 186.28H223.333C221.49 186.28 220 184.79 220 182.947C220 181.103 221.49 179.613 223.333 179.613Z" fill="#E4E4E4"/>
<path d="M243.333 179.613H250C251.843 179.613 253.333 181.103 253.333 182.947C253.333 184.79 251.843 186.28 250 186.28H243.333C241.49 186.28 240 184.79 240 182.947C240 181.103 241.49 179.613 243.333 179.613Z" fill="#E4E4E4"/>
<path d="M281.64 177.813C283.373 177.02 284.983 175.983 286.427 174.73C287.817 173.527 289.92 173.677 291.13 175.067C292.333 176.457 292.183 178.563 290.793 179.77C288.87 181.437 286.723 182.817 284.413 183.873C283.963 184.08 283.493 184.177 283.03 184.177C281.763 184.177 280.557 183.453 279.997 182.23C279.233 180.557 279.967 178.577 281.64 177.813Z" fill="#E4E4E4"/>
<path d="M203.333 179.613H210C211.843 179.613 213.333 181.103 213.333 182.947C213.333 184.79 211.843 186.28 210 186.28H203.333C201.49 186.28 200 184.79 200 182.947C200 181.103 201.49 179.613 203.333 179.613Z" fill="#E4E4E4"/>
<path d="M143.333 179.613H150C151.843 179.613 153.333 181.103 153.333 182.947C153.333 184.79 151.843 186.28 150 186.28H143.333C141.49 186.28 140 184.79 140 182.947C140 181.103 141.49 179.613 143.333 179.613Z" fill="#E4E4E4"/>
<path d="M123.333 179.613H130C131.843 179.613 133.333 181.103 133.333 182.947C133.333 184.79 131.843 186.28 130 186.28H123.333C121.49 186.28 120 184.79 120 182.947C120 181.103 121.49 179.613 123.333 179.613Z" fill="#E4E4E4"/>
<path d="M183.333 179.613H190C191.843 179.613 193.333 181.103 193.333 182.947C193.333 184.79 191.843 186.28 190 186.28H183.333C181.49 186.28 180 184.79 180 182.947C180 181.103 181.49 179.613 183.333 179.613Z" fill="#E4E4E4"/>
<path d="M163.333 179.613H170C171.843 179.613 173.333 181.103 173.333 182.947C173.333 184.79 171.843 186.28 170 186.28H163.333C161.49 186.28 160 184.79 160 182.947C160 181.103 161.49 179.613 163.333 179.613Z" fill="#E4E4E4"/>
<path d="M281.64 277.813C283.373 277.02 284.983 275.983 286.427 274.73C287.817 273.527 289.92 273.677 291.13 275.067C292.333 276.457 292.183 278.563 290.793 279.77C288.87 281.437 286.723 282.817 284.413 283.873C283.963 284.08 283.493 284.177 283.03 284.177C281.763 284.177 280.557 283.453 279.997 282.23C279.233 280.557 279.967 278.577 281.64 277.813Z" fill="#E4E4E4"/>
<path d="M243.333 279.613H250C251.843 279.613 253.333 281.103 253.333 282.947C253.333 284.79 251.843 286.28 250 286.28H243.333C241.49 286.28 240 284.79 240 282.947C240 281.103 241.49 279.613 243.333 279.613Z" fill="#E4E4E4"/>
<path d="M263.333 279.613H270C271.843 279.613 273.333 281.103 273.333 282.947C273.333 284.79 271.843 286.28 270 286.28H263.333C261.49 286.28 260 284.79 260 282.947C260 281.103 261.49 279.613 263.333 279.613Z" fill="#E4E4E4"/>
<path d="M183.333 279.613H190C191.843 279.613 193.333 281.103 193.333 282.947C193.333 284.79 191.843 286.28 190 286.28H183.333C181.49 286.28 180 284.79 180 282.947C180 281.103 181.49 279.613 183.333 279.613Z" fill="#E4E4E4"/>
<path d="M173.333 282.947C173.333 284.79 171.843 286.28 170 286.28H163.333C161.49 286.28 160 284.79 160 282.947C160 281.103 161.49 279.613 163.333 279.613H170C171.843 279.613 173.333 281.103 173.333 282.947Z" fill="#E4E4E4"/>
<path d="M150 286.28H143.333C141.49 286.28 140 284.79 140 282.947C140 281.103 141.49 279.613 143.333 279.613H150C151.843 279.613 153.333 281.103 153.333 282.947C153.333 284.79 151.843 286.28 150 286.28Z" fill="#E4E4E4"/>
<path d="M203.333 279.613H210C211.843 279.613 213.333 281.103 213.333 282.947C213.333 284.79 211.843 286.28 210 286.28H203.333C201.49 286.28 200 284.79 200 282.947C200 281.103 201.49 279.613 203.333 279.613Z" fill="#E4E4E4"/>
<path d="M130 286.28H123.333C121.49 286.28 120 284.79 120 282.947C120 281.103 121.49 279.613 123.333 279.613H130C131.843 279.613 133.333 281.103 133.333 282.947C133.333 284.79 131.843 286.28 130 286.28Z" fill="#E4E4E4"/>
<path d="M223.333 279.613H230C231.843 279.613 233.333 281.103 233.333 282.947C233.333 284.79 231.843 286.28 230 286.28H223.333C221.49 286.28 220 284.79 220 282.947C220 281.103 221.49 279.613 223.333 279.613Z" fill="#E4E4E4"/>
<path d="M153.333 229.613C153.333 236.967 147.353 242.947 140 242.947C132.647 242.947 126.667 236.967 126.667 229.613C126.667 222.26 132.647 216.28 140 216.28C147.353 216.28 153.333 222.26 153.333 229.613ZM140 222.947C136.323 222.947 133.333 225.937 133.333 229.613C133.333 233.29 136.323 236.28 140 236.28C143.677 236.28 146.667 233.29 146.667 229.613C146.667 225.937 143.677 222.947 140 222.947Z" fill="#E4E4E4"/>
<path d="M156.86 119.613L174.98 101.493C176.457 100.017 178.867 100.017 180.343 101.493L187.163 108.313L193.983 101.493C195.46 100.017 197.87 100.017 199.347 101.493L217.467 119.613H273.333C288.037 119.613 300 131.577 300 146.28V275.773C300 288.917 289.303 299.613 276.16 299.613H100V252.947V206.28V172.947V166.28V119.613H156.86ZM177.66 108.24L166.287 119.613L119.62 166.28H137.59L175.147 128.72C176.557 127.35 178.767 127.353 180.21 128.757L217.73 166.28H235.7L182.447 113.03L177.66 108.24ZM147.013 166.28H208.303L177.66 135.637L147.013 166.28ZM196.667 108.24L191.877 113.03L245.127 166.28H254.707L208.04 119.613L196.667 108.24ZM273.333 126.28H224.133L231.003 133.15C232.013 133.477 232.787 134.247 233.113 135.26L264.133 166.28H273.333C284.363 166.28 293.333 157.31 293.333 146.28C293.333 135.25 284.363 126.28 273.333 126.28ZM106.667 246.28H143.333C152.523 246.28 160 238.803 160 229.613C160 220.423 152.523 212.947 143.333 212.947H106.667V246.28ZM106.667 179.613H110C111.843 179.613 113.333 181.103 113.333 182.947C113.333 184.79 111.843 186.28 110 186.28H106.667V206.28H143.333C156.197 206.28 166.667 216.75 166.667 229.613C166.667 242.477 156.197 252.947 143.333 252.947H106.667V279.613H110C111.843 279.613 113.333 281.103 113.333 282.947C113.333 284.79 111.843 286.28 110 286.28H106.667V292.947H276.16C285.627 292.947 293.333 285.243 293.333 275.773V268.427C292.557 267.593 292.183 266.417 292.53 265.247C293.063 263.427 293.333 261.53 293.333 259.613V168.427C292.557 167.593 292.183 166.417 292.53 165.247C292.593 165.03 292.617 164.807 292.673 164.59C292.373 164.907 292.07 165.217 291.757 165.517C291.47 165.793 291.173 166.057 290.873 166.32C290.5 166.647 290.12 166.963 289.73 167.27C289.417 167.517 289.097 167.753 288.773 167.987C288.37 168.277 287.953 168.55 287.533 168.817C287.197 169.03 286.86 169.237 286.513 169.437C286.073 169.687 285.623 169.92 285.17 170.147C284.82 170.323 284.47 170.5 284.11 170.66C283.633 170.87 283.147 171.057 282.66 171.24C282.3 171.377 281.943 171.517 281.577 171.637C281.053 171.807 280.52 171.943 279.987 172.083C279.633 172.173 279.287 172.28 278.927 172.357C278.323 172.487 277.71 172.573 277.093 172.66C276.787 172.703 276.487 172.767 276.177 172.8C275.243 172.9 274.297 172.957 273.34 172.957H260.62H251.193H241.613H232.187H215.667H139.65H123.14H113.713H106.667V179.613ZM110.193 166.28L136.86 139.613H136.667C134.823 139.613 133.333 138.123 133.333 136.28C133.333 134.437 134.823 132.947 136.667 132.947H143.333C143.39 132.947 143.437 132.977 143.493 132.98L150.193 126.28H106.667V166.28H110.193Z" fill="#E4E4E4"/>
<path d="M116.667 132.947H123.333C125.177 132.947 126.667 134.437 126.667 136.28C126.667 138.123 125.177 139.613 123.333 139.613H116.667C114.823 139.613 113.333 138.123 113.333 136.28C113.333 134.437 114.823 132.947 116.667 132.947Z" fill="#E4E4E4"/>
</g>
<defs>
<clipPath id="clip0_1_8">
<rect width="200" height="200" fill="white" transform="matrix(-1 0 0 1 300 100)"/>
</clipPath>
</defs>
</svg>
