<svg width="312" height="190" viewBox="0 0 312 190" fill="none" xmlns="http://www.w3.org/2000/svg">
<g clip-path="url(#clip0_10_160)">
<path d="M208.25 26.5045C207.179 26.016 206.707 24.7509 207.198 23.6779C207.689 22.6069 208.951 22.1312 210.025 22.6261C211.503 23.3003 212.879 24.1856 214.11 25.2523C214.999 26.0245 215.095 27.3728 214.325 28.2624C213.903 28.7488 213.308 28.9984 212.713 28.9984C212.218 28.9984 211.718 28.8277 211.315 28.4779C210.391 27.6757 209.361 27.0123 208.25 26.5045Z" fill="#E4E4E4"/>
<path d="M200.8 25.3525H196.533C195.354 25.3525 194.4 24.3989 194.4 23.2192C194.4 22.0395 195.354 21.0859 196.533 21.0859H200.8C201.98 21.0859 202.933 22.0395 202.933 23.2192C202.933 24.3989 201.98 25.3525 200.8 25.3525Z" fill="#E4E4E4"/>
<path d="M188 25.3525H183.733C182.554 25.3525 181.6 24.3989 181.6 23.2192C181.6 22.0395 182.554 21.0859 183.733 21.0859H188C189.18 21.0859 190.133 22.0395 190.133 23.2192C190.133 24.3989 189.18 25.3525 188 25.3525Z" fill="#E4E4E4"/>
<path d="M196.533 50.9525H200.8C201.98 50.9525 202.933 51.9061 202.933 53.0859C202.933 54.2656 201.98 55.2192 200.8 55.2192H196.533C195.354 55.2192 194.4 54.2656 194.4 53.0859C194.4 51.9061 195.354 50.9525 196.533 50.9525Z" fill="#E4E4E4"/>
<path d="M170.933 50.9525H175.2C176.38 50.9525 177.333 51.9061 177.333 53.0859C177.333 54.2656 176.38 55.2192 175.2 55.2192H170.933C169.754 55.2192 168.8 54.2656 168.8 53.0859C168.8 51.9061 169.754 50.9525 170.933 50.9525Z" fill="#E4E4E4"/>
<path d="M183.733 50.9525H188C189.18 50.9525 190.133 51.9061 190.133 53.0859C190.133 54.2656 189.18 55.2192 188 55.2192H183.733C182.554 55.2192 181.6 54.2656 181.6 53.0859C181.6 51.9061 182.554 50.9525 183.733 50.9525Z" fill="#E4E4E4"/>
<path d="M208.25 49.8005C209.359 49.2928 210.389 48.6293 211.313 47.8272C212.203 47.0571 213.549 47.1531 214.323 48.0427C215.093 48.9323 214.997 50.2805 214.108 51.0528C212.877 52.1195 211.503 53.0027 210.025 53.6789C209.737 53.8112 209.436 53.8731 209.139 53.8731C208.329 53.8731 207.556 53.4101 207.198 52.6272C206.709 51.5563 207.179 50.2891 208.25 49.8005Z" fill="#E4E4E4"/>
<path d="M158.133 50.9525H162.4C163.58 50.9525 164.533 51.9061 164.533 53.0859C164.533 54.2656 163.58 55.2192 162.4 55.2192H158.133C156.954 55.2192 156 54.2656 156 53.0859C156 51.9061 156.954 50.9525 158.133 50.9525Z" fill="#E4E4E4"/>
<path d="M119.733 50.9525H124C125.18 50.9525 126.133 51.9061 126.133 53.0859C126.133 54.2656 125.18 55.2192 124 55.2192H119.733C118.554 55.2192 117.6 54.2656 117.6 53.0859C117.6 51.9061 118.554 50.9525 119.733 50.9525Z" fill="#E4E4E4"/>
<path d="M106.933 50.9525H111.2C112.38 50.9525 113.333 51.9061 113.333 53.0859C113.333 54.2656 112.38 55.2192 111.2 55.2192H106.933C105.754 55.2192 104.8 54.2656 104.8 53.0859C104.8 51.9061 105.754 50.9525 106.933 50.9525Z" fill="#E4E4E4"/>
<path d="M145.333 50.9525H149.6C150.78 50.9525 151.733 51.9061 151.733 53.0859C151.733 54.2656 150.78 55.2192 149.6 55.2192H145.333C144.154 55.2192 143.2 54.2656 143.2 53.0859C143.2 51.9061 144.154 50.9525 145.333 50.9525Z" fill="#E4E4E4"/>
<path d="M132.533 50.9525H136.8C137.98 50.9525 138.933 51.9061 138.933 53.0859C138.933 54.2656 137.98 55.2192 136.8 55.2192H132.533C131.354 55.2192 130.4 54.2656 130.4 53.0859C130.4 51.9061 131.354 50.9525 132.533 50.9525Z" fill="#E4E4E4"/>
<path d="M208.25 113.801C209.359 113.293 210.389 112.629 211.313 111.827C212.203 111.057 213.549 111.153 214.323 112.043C215.093 112.932 214.997 114.281 214.108 115.053C212.877 116.119 211.503 117.003 210.025 117.679C209.737 117.811 209.436 117.873 209.139 117.873C208.329 117.873 207.556 117.41 207.198 116.627C206.709 115.556 207.179 114.289 208.25 113.801Z" fill="#E4E4E4"/>
<path d="M183.733 114.953H188C189.18 114.953 190.133 115.906 190.133 117.086C190.133 118.266 189.18 119.219 188 119.219H183.733C182.554 119.219 181.6 118.266 181.6 117.086C181.6 115.906 182.554 114.953 183.733 114.953Z" fill="#E4E4E4"/>
<path d="M196.533 114.953H200.8C201.98 114.953 202.933 115.906 202.933 117.086C202.933 118.266 201.98 119.219 200.8 119.219H196.533C195.354 119.219 194.4 118.266 194.4 117.086C194.4 115.906 195.354 114.953 196.533 114.953Z" fill="#E4E4E4"/>
<path d="M145.333 114.953H149.6C150.78 114.953 151.733 115.906 151.733 117.086C151.733 118.266 150.78 119.219 149.6 119.219H145.333C144.154 119.219 143.2 118.266 143.2 117.086C143.2 115.906 144.154 114.953 145.333 114.953Z" fill="#E4E4E4"/>
<path d="M138.933 117.086C138.933 118.266 137.98 119.219 136.8 119.219H132.533C131.354 119.219 130.4 118.266 130.4 117.086C130.4 115.906 131.354 114.953 132.533 114.953H136.8C137.98 114.953 138.933 115.906 138.933 117.086Z" fill="#E4E4E4"/>
<path d="M124 119.219H119.733C118.554 119.219 117.6 118.266 117.6 117.086C117.6 115.906 118.554 114.953 119.733 114.953H124C125.18 114.953 126.133 115.906 126.133 117.086C126.133 118.266 125.18 119.219 124 119.219Z" fill="#E4E4E4"/>
<path d="M158.133 114.953H162.4C163.58 114.953 164.533 115.906 164.533 117.086C164.533 118.266 163.58 119.219 162.4 119.219H158.133C156.954 119.219 156 118.266 156 117.086C156 115.906 156.954 114.953 158.133 114.953Z" fill="#E4E4E4"/>
<path d="M111.2 119.219H106.933C105.754 119.219 104.8 118.266 104.8 117.086C104.8 115.906 105.754 114.953 106.933 114.953H111.2C112.38 114.953 113.333 115.906 113.333 117.086C113.333 118.266 112.38 119.219 111.2 119.219Z" fill="#E4E4E4"/>
<path d="M170.933 114.953H175.2C176.38 114.953 177.333 115.906 177.333 117.086C177.333 118.266 176.38 119.219 175.2 119.219H170.933C169.754 119.219 168.8 118.266 168.8 117.086C168.8 115.906 169.754 114.953 170.933 114.953Z" fill="#E4E4E4"/>
<path d="M126.133 82.9526C126.133 87.6587 122.306 91.4859 117.6 91.4859C112.894 91.4859 109.067 87.6587 109.067 82.9526C109.067 78.2464 112.894 74.4192 117.6 74.4192C122.306 74.4192 126.133 78.2464 126.133 82.9526ZM117.6 78.6859C115.247 78.6859 113.333 80.5995 113.333 82.9526C113.333 85.3056 115.247 87.2192 117.6 87.2192C119.953 87.2192 121.867 85.3056 121.867 82.9526C121.867 80.5995 119.953 78.6859 117.6 78.6859Z" fill="#E4E4E4"/>
<path d="M128.39 12.6003L139.987 0.958497C140.932 0.00976547 142.475 0.00976547 143.42 0.958497L147.785 5.34022L152.149 0.958497C153.094 0.00976547 154.637 0.00976547 155.582 0.958497L167.179 12.6003H202.933C212.343 12.6003 220 20.2865 220 29.7331V112.93C220 121.375 213.154 128.247 204.742 128.247H92V98.2645V68.282V46.866V42.5827V12.6003H128.39ZM141.702 5.29311L134.423 12.6003L104.557 42.5827H116.058L140.094 18.4511C140.996 17.5709 142.411 17.5731 143.334 18.4747L167.347 42.5827H178.848L144.766 8.37059L141.702 5.29311ZM122.089 42.5827H161.314L141.702 22.895L122.089 42.5827ZM153.867 5.29311L150.801 8.37059L184.881 42.5827H191.012L161.146 12.6003L153.867 5.29311ZM202.933 16.8835H171.445L175.842 21.2973C176.489 21.5072 176.983 22.0019 177.193 22.653L197.045 42.5827H202.933C209.993 42.5827 215.733 36.8197 215.733 29.7331C215.733 22.6465 209.993 16.8835 202.933 16.8835ZM96.2667 93.9813H119.733C125.615 93.9813 130.4 89.1776 130.4 83.2732C130.4 77.3688 125.615 72.5652 119.733 72.5652H96.2667V93.9813ZM96.2667 51.1492H98.4C99.5797 51.1492 100.533 52.1065 100.533 53.2908C100.533 54.4751 99.5797 55.4324 98.4 55.4324H96.2667V68.282H119.733C127.966 68.282 134.667 75.0088 134.667 83.2732C134.667 91.5377 127.966 98.2645 119.733 98.2645H96.2667V115.397H98.4C99.5797 115.397 100.533 116.355 100.533 117.539C100.533 118.723 99.5797 119.681 98.4 119.681H96.2667V123.964H204.742C210.801 123.964 215.733 119.014 215.733 112.93V108.21C215.236 107.675 214.997 106.919 215.219 106.167C215.561 104.998 215.733 103.779 215.733 102.548V43.9619C215.236 43.4265 214.997 42.6705 215.219 41.9188C215.26 41.7796 215.275 41.6362 215.311 41.4969C215.119 41.7004 214.925 41.8996 214.724 42.0923C214.541 42.2701 214.351 42.4393 214.159 42.6084C213.92 42.8183 213.677 43.0218 213.427 43.2188C213.227 43.3773 213.022 43.5293 212.815 43.6792C212.557 43.8656 212.29 44.0412 212.021 44.2125C211.806 44.3496 211.59 44.4823 211.369 44.6108C211.087 44.7715 210.799 44.9214 210.509 45.067C210.285 45.1805 210.061 45.294 209.83 45.3968C209.525 45.5317 209.214 45.6517 208.902 45.7694C208.672 45.8573 208.444 45.9472 208.209 46.0243C207.874 46.1335 207.533 46.2213 207.191 46.3113C206.965 46.3691 206.743 46.4376 206.513 46.4869C206.127 46.5704 205.734 46.6261 205.34 46.6818C205.143 46.7096 204.951 46.7503 204.753 46.7717C204.156 46.836 203.55 46.8724 202.938 46.8724H194.797H188.764H182.633H176.599H166.027H117.376H106.81H100.777H96.2667V51.1492ZM98.5237 42.5827L115.59 25.4499H115.467C114.287 25.4499 113.333 24.4926 113.333 23.3083C113.333 22.124 114.287 21.1667 115.467 21.1667H119.733C119.77 21.1667 119.799 21.186 119.836 21.1881L124.124 16.8835H96.2667V42.5827H98.5237Z" fill="#E4E4E4"/>
<path d="M102.667 21.0859H106.933C108.113 21.0859 109.067 22.0395 109.067 23.2192C109.067 24.3989 108.113 25.3525 106.933 25.3525H102.667C101.487 25.3525 100.533 24.3989 100.533 23.2192C100.533 22.0395 101.487 21.0859 102.667 21.0859Z" fill="#E4E4E4"/>
</g>
<path d="M22.8864 163.159H17.2045C17.1288 162.576 16.9735 162.049 16.7386 161.58C16.5038 161.11 16.1932 160.708 15.8068 160.375C15.4205 160.042 14.9621 159.788 14.4318 159.614C13.9091 159.432 13.3295 159.341 12.6932 159.341C11.5644 159.341 10.5909 159.617 9.77273 160.17C8.96212 160.723 8.33712 161.523 7.89773 162.568C7.46591 163.614 7.25 164.879 7.25 166.364C7.25 167.909 7.4697 169.205 7.90909 170.25C8.35606 171.288 8.98106 172.072 9.78409 172.602C10.5947 173.125 11.553 173.386 12.6591 173.386C13.2803 173.386 13.8447 173.307 14.3523 173.148C14.8674 172.989 15.3182 172.758 15.7045 172.455C16.0985 172.144 16.4205 171.769 16.6705 171.33C16.928 170.883 17.1061 170.379 17.2045 169.818L22.8864 169.852C22.7879 170.883 22.4886 171.898 21.9886 172.898C21.4962 173.898 20.8182 174.811 19.9545 175.636C19.0909 176.455 18.0379 177.106 16.7955 177.591C15.5606 178.076 14.1439 178.318 12.5455 178.318C10.4394 178.318 8.55303 177.856 6.88636 176.932C5.22727 176 3.91667 174.644 2.95455 172.864C1.99242 171.083 1.51136 168.917 1.51136 166.364C1.51136 163.803 2 161.633 2.97727 159.852C3.95455 158.072 5.27652 156.72 6.94318 155.795C8.60985 154.871 10.4773 154.409 12.5455 154.409C13.9545 154.409 15.2576 154.606 16.4545 155C17.6515 155.386 18.7045 155.955 19.6136 156.705C20.5227 157.447 21.2614 158.36 21.8295 159.443C22.3977 160.527 22.75 161.765 22.8864 163.159ZM34.2528 178.33C32.4195 178.33 30.8438 177.955 29.5256 177.205C28.215 176.447 27.2036 175.394 26.4915 174.045C25.7869 172.689 25.4347 171.117 25.4347 169.33C25.4347 167.534 25.7869 165.962 26.4915 164.614C27.2036 163.258 28.215 162.205 29.5256 161.455C30.8438 160.697 32.4195 160.318 34.2528 160.318C36.0862 160.318 37.6581 160.697 38.9688 161.455C40.2869 162.205 41.2983 163.258 42.0028 164.614C42.715 165.962 43.071 167.534 43.071 169.33C43.071 171.117 42.715 172.689 42.0028 174.045C41.2983 175.394 40.2869 176.447 38.9688 177.205C37.6581 177.955 36.0862 178.33 34.2528 178.33ZM34.2869 174.136C34.9536 174.136 35.518 173.932 35.9801 173.523C36.4422 173.114 36.7945 172.545 37.0369 171.818C37.2869 171.091 37.4119 170.25 37.4119 169.295C37.4119 168.326 37.2869 167.477 37.0369 166.75C36.7945 166.023 36.4422 165.455 35.9801 165.045C35.518 164.636 34.9536 164.432 34.2869 164.432C33.5975 164.432 33.0142 164.636 32.5369 165.045C32.0672 165.455 31.7074 166.023 31.4574 166.75C31.215 167.477 31.0938 168.326 31.0938 169.295C31.0938 170.25 31.215 171.091 31.4574 171.818C31.7074 172.545 32.0672 173.114 32.5369 173.523C33.0142 173.932 33.5975 174.136 34.2869 174.136ZM51.4744 168.045V178H45.9176V160.545H51.2017V163.75H51.3949C51.7813 162.682 52.4403 161.845 53.3722 161.239C54.304 160.625 55.4138 160.318 56.7017 160.318C57.929 160.318 58.9934 160.595 59.8949 161.148C60.804 161.693 61.5085 162.458 62.0085 163.443C62.5161 164.42 62.7661 165.564 62.7585 166.875V178H57.2017V167.966C57.2093 166.996 56.9631 166.239 56.4631 165.693C55.9706 165.148 55.285 164.875 54.4062 164.875C53.8229 164.875 53.3078 165.004 52.8608 165.261C52.4214 165.511 52.0805 165.871 51.8381 166.341C51.6032 166.811 51.482 167.379 51.4744 168.045ZM76.0511 160.545V164.636H65.0398V160.545H76.0511ZM67.3466 156.364H72.9034V172.511C72.9034 172.852 72.9564 173.129 73.0625 173.341C73.1761 173.545 73.339 173.693 73.5511 173.784C73.7633 173.867 74.017 173.909 74.3125 173.909C74.5246 173.909 74.7481 173.89 74.983 173.852C75.2254 173.807 75.4072 173.769 75.5284 173.739L76.3693 177.75C76.1042 177.826 75.7292 177.92 75.2443 178.034C74.767 178.148 74.1951 178.22 73.5284 178.25C72.2254 178.311 71.108 178.159 70.1761 177.795C69.2519 177.424 68.5436 176.848 68.0511 176.068C67.5663 175.288 67.3314 174.307 67.3466 173.125V156.364ZM78.8864 178V160.545H84.2841V163.727H84.4659C84.7841 162.576 85.303 161.72 86.0227 161.159C86.7424 160.591 87.5795 160.307 88.5341 160.307C88.7917 160.307 89.0568 160.326 89.3295 160.364C89.6023 160.394 89.8561 160.443 90.0909 160.511V165.341C89.8258 165.25 89.4773 165.178 89.0455 165.125C88.6212 165.072 88.2424 165.045 87.9091 165.045C87.25 165.045 86.6553 165.193 86.125 165.489C85.6023 165.777 85.1894 166.182 84.8864 166.705C84.5909 167.22 84.4432 167.826 84.4432 168.523V178H78.8864ZM99.5966 178.33C97.7633 178.33 96.1875 177.955 94.8693 177.205C93.5587 176.447 92.5473 175.394 91.8352 174.045C91.1307 172.689 90.7784 171.117 90.7784 169.33C90.7784 167.534 91.1307 165.962 91.8352 164.614C92.5473 163.258 93.5587 162.205 94.8693 161.455C96.1875 160.697 97.7633 160.318 99.5966 160.318C101.43 160.318 103.002 160.697 104.312 161.455C105.631 162.205 106.642 163.258 107.347 164.614C108.059 165.962 108.415 167.534 108.415 169.33C108.415 171.117 108.059 172.689 107.347 174.045C106.642 175.394 105.631 176.447 104.312 177.205C103.002 177.955 101.43 178.33 99.5966 178.33ZM99.6307 174.136C100.297 174.136 100.862 173.932 101.324 173.523C101.786 173.114 102.138 172.545 102.381 171.818C102.631 171.091 102.756 170.25 102.756 169.295C102.756 168.326 102.631 167.477 102.381 166.75C102.138 166.023 101.786 165.455 101.324 165.045C100.862 164.636 100.297 164.432 99.6307 164.432C98.9413 164.432 98.358 164.636 97.8807 165.045C97.411 165.455 97.0511 166.023 96.8011 166.75C96.5587 167.477 96.4375 168.326 96.4375 169.295C96.4375 170.25 96.5587 171.091 96.8011 171.818C97.0511 172.545 97.411 173.114 97.8807 173.523C98.358 173.932 98.9413 174.136 99.6307 174.136ZM116.818 154.727V178H111.261V154.727H116.818ZM128.514 178.33C126.688 178.33 125.113 177.97 123.787 177.25C122.469 176.523 121.454 175.489 120.741 174.148C120.037 172.799 119.685 171.197 119.685 169.341C119.685 167.538 120.041 165.962 120.753 164.614C121.465 163.258 122.469 162.205 123.764 161.455C125.06 160.697 126.586 160.318 128.344 160.318C129.586 160.318 130.723 160.511 131.753 160.898C132.783 161.284 133.673 161.856 134.423 162.614C135.173 163.371 135.757 164.307 136.173 165.42C136.59 166.527 136.798 167.795 136.798 169.227V170.614H121.628V167.386H131.628C131.62 166.795 131.48 166.269 131.207 165.807C130.935 165.345 130.56 164.985 130.082 164.727C129.613 164.462 129.071 164.33 128.457 164.33C127.836 164.33 127.279 164.47 126.787 164.75C126.295 165.023 125.904 165.398 125.616 165.875C125.329 166.345 125.177 166.879 125.162 167.477V170.761C125.162 171.473 125.302 172.098 125.582 172.636C125.863 173.167 126.26 173.58 126.776 173.875C127.291 174.17 127.904 174.318 128.616 174.318C129.109 174.318 129.556 174.25 129.957 174.114C130.359 173.977 130.704 173.777 130.991 173.511C131.279 173.246 131.495 172.92 131.639 172.534L136.741 172.682C136.529 173.826 136.063 174.822 135.344 175.67C134.632 176.511 133.696 177.167 132.537 177.636C131.378 178.098 130.037 178.33 128.514 178.33ZM146.511 178V154.727H162.398V159.295H152.136V164.068H161.386V168.648H152.136V178H146.511ZM165.23 178V160.545H170.787V178H165.23ZM168.014 158.511C167.234 158.511 166.563 158.254 166.003 157.739C165.442 157.216 165.162 156.587 165.162 155.852C165.162 155.125 165.442 154.504 166.003 153.989C166.563 153.466 167.234 153.205 168.014 153.205C168.802 153.205 169.473 153.466 170.026 153.989C170.586 154.504 170.866 155.125 170.866 155.852C170.866 156.587 170.586 157.216 170.026 157.739C169.473 158.254 168.802 158.511 168.014 158.511ZM179.881 168.045V178H174.324V160.545H179.608V163.75H179.801C180.188 162.682 180.847 161.845 181.778 161.239C182.71 160.625 183.82 160.318 185.108 160.318C186.335 160.318 187.4 160.595 188.301 161.148C189.21 161.693 189.915 162.458 190.415 163.443C190.922 164.42 191.172 165.564 191.165 166.875V178H185.608V167.966C185.616 166.996 185.369 166.239 184.869 165.693C184.377 165.148 183.691 164.875 182.812 164.875C182.229 164.875 181.714 165.004 181.267 165.261C180.828 165.511 180.487 165.871 180.244 166.341C180.009 166.811 179.888 167.379 179.881 168.045ZM199.526 178.295C198.412 178.295 197.423 178.11 196.56 177.739C195.704 177.36 195.026 176.792 194.526 176.034C194.033 175.269 193.787 174.311 193.787 173.159C193.787 172.189 193.957 171.371 194.298 170.705C194.639 170.038 195.109 169.496 195.707 169.08C196.306 168.663 196.995 168.348 197.776 168.136C198.556 167.917 199.389 167.769 200.276 167.693C201.268 167.602 202.067 167.508 202.673 167.409C203.279 167.303 203.719 167.155 203.991 166.966C204.272 166.769 204.412 166.492 204.412 166.136V166.08C204.412 165.496 204.211 165.045 203.81 164.727C203.408 164.409 202.866 164.25 202.185 164.25C201.45 164.25 200.859 164.409 200.412 164.727C199.965 165.045 199.681 165.485 199.56 166.045L194.435 165.864C194.586 164.803 194.976 163.856 195.605 163.023C196.241 162.182 197.113 161.523 198.219 161.045C199.332 160.561 200.67 160.318 202.23 160.318C203.344 160.318 204.37 160.451 205.31 160.716C206.249 160.973 207.067 161.352 207.764 161.852C208.461 162.345 208.999 162.951 209.378 163.67C209.764 164.39 209.957 165.212 209.957 166.136V178H204.73V175.568H204.594C204.283 176.159 203.885 176.659 203.401 177.068C202.923 177.477 202.359 177.784 201.707 177.989C201.063 178.193 200.336 178.295 199.526 178.295ZM201.241 174.659C201.84 174.659 202.378 174.538 202.855 174.295C203.34 174.053 203.726 173.72 204.014 173.295C204.302 172.864 204.446 172.364 204.446 171.795V170.136C204.287 170.22 204.094 170.295 203.866 170.364C203.647 170.432 203.404 170.496 203.139 170.557C202.874 170.617 202.601 170.67 202.321 170.716C202.041 170.761 201.772 170.803 201.514 170.841C200.991 170.924 200.545 171.053 200.173 171.227C199.81 171.402 199.529 171.629 199.332 171.909C199.143 172.182 199.048 172.508 199.048 172.886C199.048 173.462 199.253 173.902 199.662 174.205C200.079 174.508 200.605 174.659 201.241 174.659ZM218.912 168.045V178H213.355V160.545H218.639V163.75H218.832C219.219 162.682 219.878 161.845 220.81 161.239C221.741 160.625 222.851 160.318 224.139 160.318C225.366 160.318 226.431 160.595 227.332 161.148C228.241 161.693 228.946 162.458 229.446 163.443C229.954 164.42 230.204 165.564 230.196 166.875V178H224.639V167.966C224.647 166.996 224.401 166.239 223.901 165.693C223.408 165.148 222.723 164.875 221.844 164.875C221.26 164.875 220.745 165.004 220.298 165.261C219.859 165.511 219.518 165.871 219.276 166.341C219.041 166.811 218.92 167.379 218.912 168.045ZM241.784 178.33C239.943 178.33 238.364 177.951 237.045 177.193C235.735 176.436 234.727 175.383 234.023 174.034C233.318 172.678 232.966 171.11 232.966 169.33C232.966 167.542 233.318 165.973 234.023 164.625C234.735 163.269 235.746 162.212 237.057 161.455C238.375 160.697 239.947 160.318 241.773 160.318C243.386 160.318 244.792 160.61 245.989 161.193C247.193 161.777 248.133 162.602 248.807 163.67C249.489 164.731 249.848 165.977 249.886 167.409H244.693C244.587 166.515 244.284 165.814 243.784 165.307C243.292 164.799 242.648 164.545 241.852 164.545C241.208 164.545 240.644 164.727 240.159 165.091C239.674 165.447 239.295 165.977 239.023 166.682C238.758 167.379 238.625 168.242 238.625 169.273C238.625 170.303 238.758 171.174 239.023 171.886C239.295 172.591 239.674 173.125 240.159 173.489C240.644 173.845 241.208 174.023 241.852 174.023C242.367 174.023 242.822 173.913 243.216 173.693C243.617 173.473 243.947 173.152 244.205 172.727C244.462 172.295 244.625 171.773 244.693 171.159H249.886C249.833 172.598 249.473 173.856 248.807 174.932C248.148 176.008 247.22 176.845 246.023 177.443C244.833 178.034 243.42 178.33 241.784 178.33ZM260.889 178.33C259.063 178.33 257.488 177.97 256.162 177.25C254.844 176.523 253.829 175.489 253.116 174.148C252.412 172.799 252.06 171.197 252.06 169.341C252.06 167.538 252.416 165.962 253.128 164.614C253.84 163.258 254.844 162.205 256.139 161.455C257.435 160.697 258.961 160.318 260.719 160.318C261.961 160.318 263.098 160.511 264.128 160.898C265.158 161.284 266.048 161.856 266.798 162.614C267.548 163.371 268.132 164.307 268.548 165.42C268.965 166.527 269.173 167.795 269.173 169.227V170.614H254.003V167.386H264.003C263.995 166.795 263.855 166.269 263.582 165.807C263.31 165.345 262.935 164.985 262.457 164.727C261.988 164.462 261.446 164.33 260.832 164.33C260.211 164.33 259.654 164.47 259.162 164.75C258.67 165.023 258.279 165.398 257.991 165.875C257.704 166.345 257.552 166.879 257.537 167.477V170.761C257.537 171.473 257.677 172.098 257.957 172.636C258.238 173.167 258.635 173.58 259.151 173.875C259.666 174.17 260.279 174.318 260.991 174.318C261.484 174.318 261.931 174.25 262.332 174.114C262.734 173.977 263.079 173.777 263.366 173.511C263.654 173.246 263.87 172.92 264.014 172.534L269.116 172.682C268.904 173.826 268.438 174.822 267.719 175.67C267.007 176.511 266.071 177.167 264.912 177.636C263.753 178.098 262.412 178.33 260.889 178.33ZM272.011 178V160.545H277.568V178H272.011ZM274.795 158.511C274.015 158.511 273.345 158.254 272.784 157.739C272.223 157.216 271.943 156.587 271.943 155.852C271.943 155.125 272.223 154.504 272.784 153.989C273.345 153.466 274.015 153.205 274.795 153.205C275.583 153.205 276.254 153.466 276.807 153.989C277.367 154.504 277.648 155.125 277.648 155.852C277.648 156.587 277.367 157.216 276.807 157.739C276.254 158.254 275.583 158.511 274.795 158.511ZM281.105 178V160.545H286.503V163.727H286.685C287.003 162.576 287.522 161.72 288.241 161.159C288.961 160.591 289.798 160.307 290.753 160.307C291.01 160.307 291.276 160.326 291.548 160.364C291.821 160.394 292.075 160.443 292.31 160.511V165.341C292.045 165.25 291.696 165.178 291.264 165.125C290.84 165.072 290.461 165.045 290.128 165.045C289.469 165.045 288.874 165.193 288.344 165.489C287.821 165.777 287.408 166.182 287.105 166.705C286.81 167.22 286.662 167.826 286.662 168.523V178H281.105ZM301.815 178.33C299.982 178.33 298.406 177.955 297.088 177.205C295.777 176.447 294.766 175.394 294.054 174.045C293.349 172.689 292.997 171.117 292.997 169.33C292.997 167.534 293.349 165.962 294.054 164.614C294.766 163.258 295.777 162.205 297.088 161.455C298.406 160.697 299.982 160.318 301.815 160.318C303.649 160.318 305.221 160.697 306.531 161.455C307.849 162.205 308.861 163.258 309.565 164.614C310.277 165.962 310.634 167.534 310.634 169.33C310.634 171.117 310.277 172.689 309.565 174.045C308.861 175.394 307.849 176.447 306.531 177.205C305.221 177.955 303.649 178.33 301.815 178.33ZM301.849 174.136C302.516 174.136 303.08 173.932 303.543 173.523C304.005 173.114 304.357 172.545 304.599 171.818C304.849 171.091 304.974 170.25 304.974 169.295C304.974 168.326 304.849 167.477 304.599 166.75C304.357 166.023 304.005 165.455 303.543 165.045C303.08 164.636 302.516 164.432 301.849 164.432C301.16 164.432 300.577 164.636 300.099 165.045C299.63 165.455 299.27 166.023 299.02 166.75C298.777 167.477 298.656 168.326 298.656 169.295C298.656 170.25 298.777 171.091 299.02 171.818C299.27 172.545 299.63 173.114 300.099 173.523C300.577 173.932 301.16 174.136 301.849 174.136Z" fill="white"/>
<defs>
<clipPath id="clip0_10_160">
<rect width="128" height="128" fill="white" transform="matrix(-1 0 0 1 220 0)"/>
</clipPath>
</defs>
</svg>
